# xmcd
#
# Track frame offsets:
#	150
#	12772
#	26697
#	38370
#	49799
#	62244
#	73161
#	85761
#	99159
#	108995
#	122471
#	136466
#	149031
#	159490
#	172198
#	183462
#	196062
#	210706
#	224501
#	236235
#	248179
#	260728
#	273371
#	284539
#	297392
#	310194
#	322338
#	336225
#
# Disc length: 4633 seconds
#
# Revision: 0
# Processed by: cddbd v1.5.1PL2 Copyright (c) Steve Scherf et al.
# Submitted via: dBpowerAMP V4.0
#
DISCID=b812171c
DTITLE=Various Artist - The Stax Story 2: Kinda Blue
DYEAR=1900
DGENRE=
TTITLE0=Rufus and Carla Thomas - 'cause i love you
TTITLE1=William Bell - you don't miss your water
TTITLE2=Otis Redding - these arms of mine
TTITLE3=Rufus Thomas - can your monkey do the dog
TTITLE4=Barbara And The Browns - big party
TTITLE5=Rufus Thomas - jump back
TTITLE6=Otis Redding - mr. pitiful
TTITLE7=David Porter - can't see you when i want to
TTITLE8=Booker T And The MGs - boot-leg
TTITLE9=Otis Redding - i've been loving you too long (to stop now)
TTITLE10=The Astors - candy
TTITLE11=The Mad Lads - i want someone
TTITLE12=The Mar-Keys - philly dog
TTITLE13=Otis Redding - (i can't get no) satisfaction
TTITLE14=Eddie Floyd - things get better
TTITLE15=Carla Thomas - let me be good to you
TTITLE16=Ruby Johnson - i'll run your hurt away
TTITLE17=Mable John - your good thing (is about to end)
TTITLE18=The Mad Lads - patch my heart
TTITLE19=Albert King - crosscut saw
TTITLE20=Sam And Dave - can't stand up for falling down
TTITLE21=Booker T And The MGs - groovin'
TTITLE22=The Bar-Kays - give everybody some
TTITLE23=Albert King  - cold feet
TTITLE24=Sam And Dave - i thank you
TTITLE25=Ollie And The Nightingales - i got a sure thing
TTITLE26=Eddie Floyd - big bird
TTITLE27=Johnnie Taylor  - i ain't particular
EXTD=
EXTT0=
EXTT1=
EXTT2=
EXTT3=
EXTT4=
EXTT5=
EXTT6=
EXTT7=
EXTT8=
EXTT9=
EXTT10=
EXTT11=
EXTT12=
EXTT13=
EXTT14=
EXTT15=
EXTT16=
EXTT17=
EXTT18=
EXTT19=
EXTT20=
EXTT21=
EXTT22=
EXTT23=
EXTT24=
EXTT25=
EXTT26=
EXTT27=
PLAYORDER=
